<svg width="76" height="76" viewBox="0 0 76 76" fill="none" xmlns="http://www.w3.org/2000/svg">
  <rect width="76" height="76" rx="38" fill="#F3F5F7"/>
  <path d="M38 18C32.76 18 28.5 22.26 28.5 27.5C28.5 32.64 32.52 36.8 37.76 36.98C37.92 36.96 38.08 36.96 38.2 36.98C38.24 36.98 38.26 36.98 38.3 36.98C38.32 36.98 38.32 36.98 38.34 36.98C43.46 36.8 47.48 32.64 47.5 27.5C47.5 22.26 43.24 18 38 18Z" fill="#A7B1BF"/>
  <path opacity="0.4" d="M48.1599 42.32C42.5799 38.6 33.4799 38.6 27.8599 42.32C25.3199 44 23.9199 46.3 23.9199 48.76C23.9199 51.22 25.3199 53.5 27.8399 55.18C30.6399 57.06 34.3199 58 37.9999 58C41.6799 58 45.3599 57.06 48.1599 55.18C50.6799 53.48 52.0799 51.2 52.0799 48.72C52.0599 46.28 50.6799 43.98 48.1599 42.32Z" fill="#A7B1BF"/>
  <path d="M36.7402 52.52C36.4202 52.52 36.1002 52.38 35.8602 52.16L33.3402 49.64C32.8602 49.16 32.8602 48.36 33.3402 47.88C33.8202 47.4 34.6202 47.4 35.1002 47.88L36.7402 49.52L40.9002 45.36C41.3802 44.88 42.1802 44.88 42.6602 45.36C43.1402 45.84 43.1402 46.64 42.6602 47.12L37.6202 52.16C37.3802 52.4 37.0602 52.52 36.7402 52.52Z" fill="#A7B1BF"/>
</svg>  