<svg width="76" height="76" viewBox="0 0 76 76" fill="none" xmlns="http://www.w3.org/2000/svg">
  <rect width="76" height="76" rx="38" fill="#F3F5F7"/>
  <path opacity="0.4" d="M36.0002 54.02C45.9524 54.02 54.0202 45.9522 54.0202 36C54.0202 26.0478 45.9524 17.98 36.0002 17.98C26.0481 17.98 17.9802 26.0478 17.9802 36C17.9802 45.9522 26.0481 54.02 36.0002 54.02Z" fill="#8591A2"/>
  <path d="M42 34.5H30C29.18 34.5 28.5 33.82 28.5 33C28.5 32.18 29.18 31.5 30 31.5H42C42.82 31.5 43.5 32.18 43.5 33C43.5 33.82 42.82 34.5 42 34.5Z" fill="#8591A2"/>
  <path d="M36 40.5H30C29.18 40.5 28.5 39.82 28.5 39C28.5 38.18 29.18 37.5 30 37.5H36C36.82 37.5 37.5 38.18 37.5 39C37.5 39.82 36.82 40.5 36 40.5Z" fill="#8591A2"/>
  <path d="M57.9801 51.9C57.3201 50.68 55.9201 50 54.0401 50C52.6201 50 51.4001 50.58 50.6801 51.58C49.9601 52.58 49.8001 53.92 50.2401 55.26C51.1001 57.86 52.6001 58.44 53.4201 58.54C53.5401 58.56 53.6601 58.56 53.8001 58.56C54.6801 58.56 56.0401 58.18 57.3601 56.2C58.4201 54.66 58.6201 53.12 57.9801 51.9Z" fill="#8591A2"/>
</svg>  